<svg viewBox="0,0,975,610" width="975" height="610" xmlns="http://www.w3.org/2000/svg" xmlns:xlink="http://www.w3.org/1999/xlink"><text class="title" y="24">Число заболевших</text><g class="axis xAxis" transform="translate(0, 80)" fill="none" font-size="10" font-family="sans-serif" text-anchor="middle"><path class="domain" stroke="currentColor" d="M100.5,-6V0.5H935.5V-6"/><g class="tick" opacity="1" transform="translate(100.5,0)"><line stroke="currentColor" y2="-6" class="origin"/><text fill="currentColor" y="-9" dy="0em">0</text></g><g class="tick" opacity="1" transform="translate(180.49616784824678,0)"><line stroke="currentColor" y2="-6"/><text fill="currentColor" y="-9" dy="0em">500</text></g><g class="tick" opacity="1" transform="translate(260.49233569649357,0)"><line stroke="currentColor" y2="-6"/><text fill="currentColor" y="-9" dy="0em">1,000</text></g><g class="tick" opacity="1" transform="translate(340.4885035447404,0)"><line stroke="currentColor" y2="-6"/><text fill="currentColor" y="-9" dy="0em">1,500</text></g><g class="tick" opacity="1" transform="translate(420.4846713929872,0)"><line stroke="currentColor" y2="-6"/><text fill="currentColor" y="-9" dy="0em">2,000</text></g><g class="tick" opacity="1" transform="translate(500.4808392412339,0)"><line stroke="currentColor" y2="-6"/><text fill="currentColor" y="-9" dy="0em">2,500</text></g><g class="tick" opacity="1" transform="translate(580.4770070894808,0)"><line stroke="currentColor" y2="-6"/><text fill="currentColor" y="-9" dy="0em">3,000</text></g><g class="tick" opacity="1" transform="translate(660.4731749377275,0)"><line stroke="currentColor" y2="-6"/><text fill="currentColor" y="-9" dy="0em">3,500</text></g><g class="tick" opacity="1" transform="translate(740.4693427859744,0)"><line stroke="currentColor" y2="-6"/><text fill="currentColor" y="-9" dy="0em">4,000</text></g><g class="tick" opacity="1" transform="translate(820.4655106342211,0)"><line stroke="currentColor" y2="-6"/><text fill="currentColor" y="-9" dy="0em">4,500</text></g><g class="tick" opacity="1" transform="translate(900.4616784824678,0)"><line stroke="currentColor" y2="-6"/><text fill="currentColor" y="-9" dy="0em">5,000</text></g></g><rect class="bar" x="101" width="834" y="85" height="37.5" fill="rgba(255, 30, 0, 0.56)" style="fill: rgba(255, 8, 0, 0.827);"/><rect class="bar" x="101" width="68.43667369227822" y="137.5" height="37.5" style="fill: rgba(255, 23, 0, 0.635);" fill="rgba(255, 30, 0, 0.56)"/><rect class="bar" x="101" width="46.83770837325159" y="190" height="37.5" fill="rgba(255, 30, 0, 0.56)" style="fill: rgba(255, 24, 0, 0.624);"/><rect class="bar" x="101" width="14.999233569649348" y="242.5" height="37.5" fill="rgba(255, 30, 0, 0.56)" style="fill: rgba(255, 27, 0, 0.596);"/><rect class="bar" x="101" width="10.039471163058067" y="295" height="37.5" fill="rgba(255, 30, 0, 0.56)" style="fill: rgba(255, 27, 0, 0.592);"/><rect class="bar" x="101" width="7.959570799003643" y="347.5" height="37.5" fill="rgba(255, 30, 0, 0.56)" style="fill: rgba(255, 27, 0, 0.59);"/><rect class="bar" x="101" width="7.159609120521168" y="400" height="37.5" fill="rgba(255, 30, 0, 0.56)" style="fill: rgba(255, 28, 0, 0.59);"/><rect class="bar" x="101" width="7.159609120521168" y="452.5" height="37.5" fill="rgba(255, 30, 0, 0.56)" style="fill: rgba(255, 28, 0, 0.59);"/><rect class="bar" x="101" width="6.839624449128181" y="505" height="37.5" fill="rgba(255, 30, 0, 0.56)" style="fill: rgba(255, 28, 0, 0.584);"/><rect class="bar" x="101" width="6.839624449128181" y="557.5" height="37.5" fill="rgba(255, 30, 0, 0.56)" style="fill: rgba(255, 28, 0, 0.584);"/><text class="label" x="930" y="112.25" text-anchor="end">Moscow</text><text class="label" x="164.43667369227822" y="164.75" text-anchor="end">Moscow region</text><text class="label" x="142.8377083732516" y="217.25" text-anchor="end">St. Petersburg</text><text class="label" x="110.99923356964935" y="269.75" text-anchor="end">Komi</text><text class="label" x="106.03947116305807" y="322.25" text-anchor="end">Krasnodar</text><text class="label" x="103.95957079900364" y="374.75" text-anchor="end">Briansk</text><text class="label" x="103.15960912052117" y="427.25" text-anchor="end">Penza</text><text class="label" x="103.15960912052117" y="479.75" text-anchor="end">Ekaterinburg</text><text class="label" x="102.83962444912818" y="532.25" text-anchor="end">Kaliningrad</text><text class="label" x="102.83962444912818" y="584.75" text-anchor="end">Tula</text><text class="label" x="940" y="112.25">5.2k</text><text class="label" x="174.43667369227822" y="164.75">430</text><text class="label" x="152.8377083732516" y="217.25">300</text><text class="label" x="120.99923356964935" y="269.75">100</text><text class="label" x="116.03947116305807" y="322.25">69</text><text class="label" x="113.95957079900364" y="374.75">56</text><text class="label" x="113.15960912052117" y="427.25">51</text><text class="label" x="113.15960912052117" y="479.75">51</text><text class="label" x="112.83962444912818" y="532.25">49</text><text class="label" x="112.83962444912818" y="584.75">49</text><text class="source" x="955" y="582" style="text-anchor: end;">Source Graphic: @jburnmurdoch adapted by IG</text><text class="source" x="955" y="604" style="text-anchor: end;">Sources: Alexey Kuprianov https://github.com/alexei-kouprianov/COVID.2019.ru</text></svg>